# xmcd
# 
# Track frame offsets:
#     150
#     20524
#     29377
#     44048
#     61776
#     81406
#     100119
#     111938
#     130471
#     149231
#     163504
#     178345
#     194280
#     215258
# 
# Disc length: 3229
# 
# Revision: 3
# Processed by: cddbd v1.5.2PL0 Copyright (c) Steve Scherf et al.
# Submitted via: fre:ac v1.0.31
# 
DISCID=d30c9b0e
DTITLE=The Nitty Gritty Dirt Band - Will The Circle Be Unbroken Vol.III Disc 2
DYEAR=2002
DGENRE=Country
TTITLE0=Taj Mahal, with Vassar Clements - Fishin' Blues
TTITLE1=Jimmy Martin - Save It, Save It
TTITLE2=Dwight Yoakam - Wheels
TTITLE3=Willie Nelson - Roll In My Sweet Baby's Arms
TTITLE4=Matraca Beg and Emmylou Harris - Oh Cumberland
TTITLE5=Doc Watson, with Richard Watson - I Am A Pilgrim
TTITLE6=Earl Scruggs - Sallie Ann
TTITLE7=Alison Krauss - Catfish John
TTITLE8=Nitty Gritty Dirt Band - Roll The Stone Away
TTITLE9=Vince Gill - All Prayed Up
TTITLE10=Jerry Douglas, Glen Duncan, Ronnie McCoury and Tony Rice - Return To Dismal Swamp II
TTITLE11=Rodney Dillard and Ricky Scaggs - There Is A Time
TTITLE12=Taj Mahal, Alison Krauss and Doc Watson - Will the Circle Be Unbroken (Glory, Glory)
TTITLE13=Randy Scruggs - Farther Along
EXTD=YEAR: 2002
EXTT0=
EXTT1=
EXTT2=
EXTT3=
EXTT4=
EXTT5=
EXTT6=
EXTT7=
EXTT8=
EXTT9=
EXTT10=
EXTT11=
EXTT12=
EXTT13=
PLAYORDER=
